<ttFont>
<head>
    <!-- Most of this table will be recalculated by the compiler -->
    <tableVersion value="1.0"/>
    <fontRevision value="2.10999"/>
    <checkSumAdjustment value="0x89fc2682"/>
    <magicNumber value="0x5f0f3cf5"/>
    <flags value="00000000 00000011"/>
    <unitsPerEm value="1000"/>
    <created value="Wed Apr  5 21:29:40 2017"/>
    <modified value="Wed Apr  5 21:29:40 2017"/>
    <xMin value="-68"/>
    <yMin value="-288"/>
    <xMax value="1603"/>
    <yMax value="998"/>
    <macStyle value="00000000 00000000"/>
    <lowestRecPPEM value="3"/>
    <fontDirectionHint value="2"/>
    <indexToLocFormat value="0"/>
    <glyphDataFormat value="0"/>
  </head>
          <CharString index="0">
            -59 569 171 rmoveto
            -96 callsubr
            -174 114 -112 90 callsubr
            77 102 31 vhcurveto
            -260 272 -54 callsubr
            return
          </CharString>
          <CharString index="1">
            -78 callsubr
            71 callsubr
            554 -140 -86 -100 callsubr
            return
          </CharString>
          <CharString index="2">
            37 29 29 37 37 -29 29 -37 -37 -29 -29 -37 -37 29 -29 37 hvcurveto
            return
          </CharString>
          <CharString index="3">
            103 -27 callsubr
            1 callsubr
            -98 callsubr
            return
          </CharString>
          <CharString index="4">
            -95 callsubr
            185 hmoveto
            -105 callsubr
            return
          </CharString>
          <CharString index="5">
            -38 37 278 -14 callsubr
            0 callsubr
            174 -127 110 -158 -5 callsubr
            vhcurveto
            428 -1 rmoveto
            -112 -72 -54 -72 3 callsubr
            68 53 74 12 callsubr
            return
          </CharString>
          <CharString index="6">
            -103 callsubr
            endchar
          </CharString>
          <CharString index="7">
            vlineto
            -99 callsubr
            return
          </CharString>
          <CharString index="8">
            -83 callsubr
            436 -1 -92 callsubr
            return
          </CharString>
          <CharString index="9">
            209 -158 148 -199 -39 callsubr
            vhcurveto
            570 hmoveto
            9 callsubr
            -68 callsubr
            126 87 -89 -139 vhcurveto
            return
          </CharString>
          <CharString index="10">
            -10 598 -74 callsubr
            -325 vlineto
            -152 93 -84 121 77 62 33 58 34 vhcurveto
            return
          </CharString>
          <CharString index="11">
            -152 hlineto
            -33 -19 -29 -13 callsubr
            404 -32 callsubr
            -159 -161 -114 -110 -174 return
          </CharString>
          <CharString index="12">
            rmoveto
            -105 callsubr
            return
          </CharString>
          <CharString index="13">
            -97 callsubr
            -84 141 vlineto
            return
          </CharString>
          <CharString index="14">
            26 73 268 rmoveto
            -186 131 -89 148 148 137 89 186 vhcurveto
            -71 callsubr
            return
          </CharString>
          <CharString index="15">
            rmoveto
            -48 callsubr
            -49 callsubr
            vhcurveto
            return
          </CharString>
          <CharString index="16">
            22 269 49 callsubr
            -247 -700 53 callsubr
            45 131 rlineto
            272 hlineto
            45 -131 53 callsubr
            -246 700 rlineto
            return
          </CharString>
          <CharString index="17">
            hhcurveto
            -68 callsubr
            72 55 -43 callsubr
            -39 callsubr
            hvcurveto
            return
          </CharString>
          <CharString index="18">
            rmoveto
            -149 86 rlineto
            -102 vlineto
            149 -84 148 84 rlineto
            102 vlineto
            endchar
          </CharString>
          <CharString index="19">
            -81 callsubr
            -132 106 -72 149 155 94 100 110 vhcurveto
            27 callsubr
            return
          </CharString>
          <CharString index="20">
            rmoveto
            72 hlineto
            30 5 16 14 23 40 26 -45 57 hhcurveto
            63 45 40 91 14 hvcurveto
            -73 hlineto
            -30 -4 -16 -13 -23 -40 -26 44 -57 hhcurveto
            -62 -46 -40 -91 -14 hvcurveto
            return
          </CharString>
          <CharString index="21">
            -79 callsubr
            endchar
          </CharString>
          <CharString index="22">
            -28 callsubr
            -120 8 95 -60 129 hhcurveto
            128 96 68 101 hvcurveto
            -60 callsubr
            return
          </CharString>
          <CharString index="23">
            -22 callsubr
            -53 callsubr
            262 hlineto
            return
          </CharString>
          <CharString index="24">
            -80 callsubr
            hvcurveto
            return
          </CharString>
          <CharString index="25">
            rmoveto
            -76 callsubr
            vhcurveto
            return
          </CharString>
          <CharString index="26">
            rmoveto
            61 43 26 53 56 36 -35 -52 5 vhcurveto
            154 hlineto
            139 -8 -100 61 -139 hhcurveto
            -142 -104 -81 -128 hvcurveto
            -253 359 106 -157 vvcurveto
            -52 -39 -38 -65 -65 -35 33 59 -5 vhcurveto
            76 callsubr
            return
          </CharString>
          <CharString index="27">
            56 -36 -61 38 -82 hhcurveto
            -142 -115 -114 -170 return
          </CharString>
          <CharString index="28">
            rmoveto
            -99 vlineto
            230 105 rlineto
            114 vlineto
            return
          </CharString>
          <CharString index="29">
            4 36 278 -82 callsubr
            return
          </CharString>
          <CharString index="30">
            -87 callsubr
            endchar
          </CharString>
          <CharString index="31">
            -47 callsubr
            82 60 42 59 37 return
          </CharString>
          <CharString index="32">
            -92 callsubr
            -436 1 -82 callsubr
            -97 vlineto
            -103 -60 -45 -74 -70 -53 30 50 -17 vhcurveto
            -138 hlineto
            -132 14 108 -70 156 hhcurveto
            186 88 120 150 hvcurveto
            558 16 callsubr
            return
          </CharString>
          <CharString index="33">
            554 rmoveto
            -141 -305 hlineto
            -88 -49 -47 -75 -75 -48 47 88 vhcurveto
            305 -140 return
          </CharString>
          <CharString index="34">
            rmoveto
            68 callsubr
            vhcurveto
            -116 204 116 hlineto
            82 callsubr
            hvcurveto
            -366 210 rmoveto
            -698 141 278 46 vlineto
            167 -278 rlineto
            167 hlineto
            -178 287 rlineto
            125 30 41 95 76 vvcurveto
            42 callsubr
            vhcurveto
            return
          </CharString>
          <CharString index="35">
            -40 callsubr
            326 vlineto
            152 -93 84 -122 -76 -62 -33 -58 -34 vhcurveto
            return
          </CharString>
          <CharString index="36">
            430 -140 -430 vlineto
            -97 -53 -49 -89 -90 -51 49 97 83 callsubr
            43 callsubr
            return
          </CharString>
          <CharString index="37">
            -59 206 508 -88 callsubr
            return
          </CharString>
          <CharString index="38">
            rmoveto
            -148 83 -149 -83 rlineto
            -103 vlineto
            149 87 148 -87 rlineto
            return
          </CharString>
          <CharString index="39">
            -126 -88 90 139 -19 callsubr
            return
          </CharString>
          <CharString index="40">
            -139 44 392 -85 callsubr
            return
          </CharString>
          <CharString index="41">
            rmoveto
            -71 51 -44 64 63 51 44 71 71 -51 44 -63 -64 -51 -44 -71 vhcurveto
            165 1 rmoveto
            -30 -22 -20 -28 -28 -22 20 30 30 22 20 28 28 22 -20 -30 vhcurveto
            return
          </CharString>
          <CharString index="42">
            -69 callsubr
            endchar
          </CharString>
          <CharString index="43">
            -72 callsubr
            83 43 callsubr
            return
          </CharString>
          <CharString index="44">
            8 callsubr
            -147 198 188 130 143 142 22 vhcurveto
            107 -383 -107 232 vlineto
            -93 -16 -66 -64 -107 -90 callsubr
            return
          </CharString>
          <CharString index="45">
            -169 hlineto
            -63 -33 -55 -29 -72 -90 callsubr
            return
          </CharString>
          <CharString index="46">
            40 callsubr
            45 callsubr
            vhcurveto
            -62 callsubr
            return
          </CharString>
          <CharString index="47">
            204 -319 -80 109 vvcurveto
            34 30 24 54 53 29 -23 -47 4 vhcurveto
            144 hlineto
            112 -6 -90 68 -125 hhcurveto
            -148 -81 -79 -91 hvcurveto
            return
          </CharString>
          <CharString index="48">
            -50 callsubr
            41 51 86 32 -5 37 69 callsubr
            return
          </CharString>
          <CharString index="49">
            -83 36 277 78 callsubr
            114 -111 90 callsubr
            76 113 31 vhcurveto
            -57 callsubr
            return
          </CharString>
          <CharString index="50">
            -152 hlineto
            -48 -19 -32 -22 -57 hhcurveto
            -81 -49 64 102 102 49 64 81 57 35 -28 -41 16 hvcurveto
            152 hlineto
            120 -31 -94 68 -135 hhcurveto
            -159 -114 -111 -174 hvcurveto
            return
          </CharString>
          <CharString index="51">
            -34 441 488 -73 callsubr
            return
          </CharString>
          <CharString index="52">
            -10 75 hmoveto
            -64 callsubr
            return
          </CharString>
          <CharString index="53">
            rmoveto
            72 57 -47 -74 4 hvcurveto
            -262 hlineto
            74 9 53 47 67 hhcurveto
            return
          </CharString>
          <CharString index="54">
            403 108 -33 callsubr
            return
          </CharString>
          <CharString index="55">
            7 callsubr
            -89 hlineto
            -35 -21 2 30 30 21 1 35 hvcurveto
            52 return
          </CharString>
          <CharString index="56">
            rmoveto
            -484 vlineto
            -316 484 rlineto
            -141 -700 141 484 hlineto
            316 -484 rlineto
            141 700 hlineto
            return
          </CharString>
          <CharString index="57">
            -43 -8 callsubr
            21 callsubr
            return
          </CharString>
          <CharString index="58">
            107 74 55 72 73 74 -56 -107 return
          </CharString>
          <CharString index="59">
            -107 -74 -56 -73 -72 -74 57 107 return
          </CharString>
          <CharString index="60">
            -170 115 -116 142 return
          </CharString>
          <CharString index="61">
            vlineto
            -59 36 59 -42 83 hhcurveto
            143 114 116 170 170 -114 114 -143 -83 -60 -38 -56 -35 hvcurveto
            292 -190 rmoveto
            -107 -73 -57 -73 -73 -73 56 107 107 73 56 73 73 73 -55 -107 vhcurveto
            endchar
          </CharString>
          <CharString index="62">
            -44 callsubr
            endchar
          </CharString>
          <CharString index="63">
            rmoveto
            230 -105 rlineto
            99 vlineto
            -230 120 rlineto
            return
          </CharString>
          <CharString index="64">
            -28 -64 33 hvcurveto
            169 hlineto
            143 -52 -128 78 -149 hhcurveto
            return
          </CharString>
          <CharString index="65">
            36 550 rmoveto
            -103 68 -58 91 90 68 58 103 18 callsubr
            35 22 -23 -53 66 callsubr
            53 22 23 34 hvcurveto
            -76 -626 rmoveto
            136 58 callsubr
            -98 -549 rmoveto
            -104 68 -57 91 90 68 57 104 18 callsubr
            34 22 -24 -52 -53 -22 -24 -34 -35 -21 24 53 52 21 24 35 hvcurveto
            return
          </CharString>
          <CharString index="66">
            rmoveto
            -89 -188 rlineto
            88 hlineto
            116 188 rlineto
            -309 hmoveto
            -72 -188 rlineto
            89 hlineto
            99 188 rlineto
            endchar
          </CharString>
          <CharString index="67">
            141 306 hlineto
            -26 callsubr
            return
          </CharString>
          <CharString index="68">
            -198 -159 -148 -209 return
          </CharString>
          <CharString index="69">
            65 532 700 -51 callsubr
            return
          </CharString>
          <CharString index="70">
            -191 444 554 rmoveto
            -397 -115 234 hlineto
            -234 -323 rlineto
            -116 397 116 -233 vlineto
            233 323 rlineto
            return
          </CharString>
          <CharString index="71">
            rmoveto
            26 -74 vlineto
            -44 -20 -26 -65 -65 -20 26 44 vhcurveto
            -75 -26 hlineto
            -94 63 -56 97 97 62 56 94 vhcurveto
            return
          </CharString>
          <CharString index="72">
            -107 526 79 callsubr
            -476 -108 314 hlineto
            -314 -482 rlineto
            -108 476 108 -314 vlineto
            314 482 rlineto
            return
          </CharString>
          <CharString index="73">
            46 35 35 45 45 -35 35 -46 -44 -35 -35 -45 -45 35 -35 44 hvcurveto
            return
          </CharString>
          <CharString index="74">
            -262 193 -9 callsubr
            return
          </CharString>
          <CharString index="75">
            hlineto
            3 19 1 18 17 vvcurveto
            171 -118 106 return
          </CharString>
          <CharString index="76">
            -2 callsubr
            146 hlineto
            69 24 callsubr
            return
          </CharString>
          <CharString index="77">
            -95 callsubr
            endchar
          </CharString>
          <CharString index="78">
            89 118 -67 hlineto
            -43 -15 15 35 hvcurveto
            271 124 115 -124 137 -141 -137 -59 -115 59 vlineto
            endchar
          </CharString>
          <CharString index="79">
            rmoveto
            -196 319 77 -109 vvcurveto
            -36 -34 -26 -53 -51 -33 24 46 -5 vhcurveto
            -144 hlineto
            return
          </CharString>
          <CharString index="80">
            -18 callsubr
            -148 198 return
          </CharString>
          <CharString index="81">
            88 49 46 75 74 49 -46 -88 86 callsubr
            140 return
          </CharString>
          <CharString index="82">
            rmoveto
            101 hlineto
            19 3 14 14 27 hhcurveto
            24 16 -12 -22 -23 -19 -11 -26 hvcurveto
            -25 -67 29 hlineto
            28 18 -14 -22 -23 -18 -15 -24 -25 -17 13 25 -4 hvcurveto
            -107 hlineto
            -73 1 67 -42 85 hhcurveto
            91 66 41 59 41 -30 27 -34 12 hvcurveto
            3 vlineto
            34 10 26 22 42 vvcurveto
            58 -61 50 -85 -96 -57 -49 -63 -2 vhcurveto
            endchar
          </CharString>
          <CharString index="83">
            100 hlineto
            43 6 27 21 33 59 38 -65 84 hhcurveto
            88 66 56 133 22 hvcurveto
            -101 hlineto
            -43 -6 -27 -21 -33 -58 -39 65 -84 hhcurveto
            -88 -65 -55 -134 -22 hvcurveto
            return
          </CharString>
          <CharString index="84">
            55 vlineto
            -31 callsubr
            return
          </CharString>
          <CharString index="85">
            -136 478 49 callsubr
            -403 -700 return
          </CharString>
          <CharString index="86">
            rmoveto
            -126 70 -42 107 vhcurveto
            -29 callsubr
          </CharString>
          <CharString index="87">
            rmoveto
            108 48 32 79 vhcurveto
            35 144 hlineto
            -73 -55 -42 -64 -34 hvcurveto
            98 -141 -554 141 vlineto
            return
          </CharString>
          <CharString index="88">
            139 88 89 126 return
          </CharString>
          <CharString index="89">
            36 351 8 callsubr
            return
          </CharString>
          <CharString index="90">
            46 14 282 rmoveto
            67 -282 -6 callsubr
            -237 -284 -67 hlineto
            208 -307 rmoveto
            175 162 132 -162 175 55 callsubr
          </CharString>
          <CharString index="91">
            rmoveto
            -130 65 -19 vlineto
            -41 -17 -13 -33 vhcurveto
            -56 vlineto
            138 17 130 129 -47 hvcurveto
            endchar
          </CharString>
          <CharString index="92">
            rmoveto
            -199 hlineto
            99 291 rlineto
            endchar
          </CharString>
          <CharString index="93">
            78 callsubr
            125 -112 159 return
          </CharString>
          <CharString index="94">
            -27 -60 hhcurveto
            -73 -50 48 72 -6 hvcurveto
            return
          </CharString>
          <CharString index="95">
            -74 224 10 rmoveto
            -115 -272 rlineto
            147 hlineto
            346 816 rlineto
            -147 hlineto
            -149 -394 -141 394 35 callsubr
            return
          </CharString>
          <CharString index="96">
            -40 251 240 rmoveto
            -240 141 240 vlineto
            236 458 5 callsubr
            return
          </CharString>
          <CharString index="97">
            rmoveto
            382 100 -382 hlineto
            endchar
          </CharString>
          <CharString index="98">
            232 108 -232 183 return
          </CharString>
          <CharString index="99">
            54 callsubr
            57 -19 vlineto
            -41 -16 return
          </CharString>
          <CharString index="100">
            -280 216 278 -20 callsubr
            return
          </CharString>
          <CharString index="101">
            237 hlineto
            223 152 136 212 212 -152 138 -223 hvcurveto
            return
          </CharString>
          <CharString index="102">
            -159 -127 -110 -174 return
          </CharString>
          <CharString index="103">
            -463 33 91 -16 callsubr
          </CharString>
          <CharString index="104">
            rmoveto
            108 hlineto
            21 2 12 13 20 hhcurveto
            21 15 -15 -25 -32 -23 -23 -39 -26 hvcurveto
            -114 -78 rlineto
            -82 287 85 -171 vlineto
            76 43 rlineto
            67 40 30 30 48 vvcurveto
            57 -51 58 -92 -92 -55 -46 -68 -1 vhcurveto
            endchar
          </CharString>
          <CharString index="105">
            35 21 -1 -30 -30 -21 -2 -35 hvcurveto
            -112 -82 return
          </CharString>
          <CharString index="106">
            40 312 79 callsubr
            -237 -698 -6 callsubr
            -96 -591 rmoveto
            482 10 callsubr
            return
          </CharString>
          <CharString index="107">
            159 128 112 174 return
          </CharString>
          <CharString index="108">
            198 159 148 210 return
          </CharString>
          <CharString index="109">
            139 -86 callsubr
          </CharString>
          <CharString index="110">
            -73 -68 54 112 113 return
          </CharString>
          <CharString index="111">
            31 hlineto
            54 22 20 58 vhcurveto
            118 vlineto
            -151 -69 -58 -134 hvcurveto
            -31 -60 -115 60 vlineto
            return
          </CharString>
          <CharString index="112">
            35 callsubr
            -148 -329 -149 329 35 callsubr
            return
          </CharString>
          <CharString index="113">
            91 callsubr
            698 63 callsubr
            return
          </CharString>
          <CharString index="114">
            -74 61 -39 68 vhcurveto
            123 81 return
          </CharString>
          <CharString index="115">
            rmoveto
            -210 159 return
          </CharString>
          <CharString index="116">
            -139 -87 -90 -126 return
          </CharString>
          <CharString index="117">
            96 vlineto
            148 84 -94 -147 -147 -84 -94 -148 hvcurveto
            return
          </CharString>
          <CharString index="118">
            464 277 rmoveto
            -112 -71 -54 -73 3 callsubr
            69 53 73 12 callsubr
            -428 1 -14 callsubr
            return
          </CharString>
          <CharString index="119">
            72 71 -53 -113 vhcurveto
            return
          </CharString>
          <CharString index="120">
            141 231 hlineto
            190 -231 rlineto
            188 hlineto
            -246 274 246 280 rlineto
            -191 hlineto
            -187 -237 rlineto
            423 85 callsubr
          </CharString>
          <CharString index="121">
            141 310 hlineto
            253 -310 rlineto
            183 hlineto
            -303 348 303 350 rlineto
            -184 hlineto
            -252 -312 rlineto
            312 85 callsubr
          </CharString>
          <CharString index="122">
            91 callsubr
            554 63 callsubr
            return
          </CharString>
          <CharString index="123">
            62 callsubr
            25 callsubr
            return
          </CharString>
          <CharString index="124">
            138 -86 callsubr
          </CharString>
          <CharString index="125">
            102 -68 58 -90 -91 -68 -58 -102 vhcurveto
            158 76 rmoveto
            return
          </CharString>
          <CharString index="126">
            rmoveto
            91 175 rlineto
            -131 hlineto
            -89 -175 89 -175 rlineto
            131 hlineto
            return
          </CharString>
          <CharString index="127">
            rmoveto
            48 38 38 48 48 -38 38 -48 -47 -38 -38 -48 -48 38 -38 47 hvcurveto
            return
          </CharString>
          <CharString index="128">
            -20 -34 vhcurveto
            -56 vlineto
            84 return
          </CharString>
          <CharString index="129">
            84 hmoveto
            140 439 88 115 -88 4 callsubr
            return
          </CharString>
          <CharString index="130">
            88 175 -88 175 rlineto
            -132 hlineto
            92 -175 -92 -175 rlineto
            return
          </CharString>
          <CharString index="131">
            60 40 74 74 -60 33 -70 hvcurveto
            return
          </CharString>
          <CharString index="132">
            vlineto
            -83 callsubr
            return
          </CharString>
          <CharString index="133">
            rmoveto
            188 -590 140 590 189 108 -517 hlineto
            return
          </CharString>
          <CharString index="134">
            255 -358 -111 161 vvcurveto
            return
          </CharString>
          <CharString index="135">
            167 573 rmoveto
            65 callsubr
            33 vhcurveto
            56 vlineto
            -84 -41 67 callsubr
            return
          </CharString>
          <CharString index="136">
            41 callsubr
            endchar
          </CharString>
          <CharString index="137">
            -424 129 251 rmoveto
            -34 callsubr
            endchar
          </CharString>
          <CharString index="138">
            33 callsubr
            -33 vhcurveto
            -56 vlineto
            return
          </CharString>
          <CharString index="139">
            -698 365 107 -224 591 vlineto
            return
          </CharString>
          <CharString index="140">
            92 callsubr
            34 callsubr
            return
          </CharString>
          <CharString index="141">
            58 -19 vlineto
            -41 -17 -20 return
          </CharString>
          <CharString index="142">
            rlineto
            -158 hlineto
            return
          </CharString>
          <CharString index="143">
            -100 79 298 rmoveto
            425 117 -425 hlineto
            endchar
          </CharString>
          <CharString index="144">
            31 callsubr
            84 41 46 callsubr
            return
          </CharString>
          <CharString index="145">
            -50 callsubr
            42 51 86 32 -6 37 69 callsubr
            return
          </CharString>
          <CharString index="146">
            -108 34 callsubr
            -33 51 callsubr
            -12 39 hvcurveto
            endchar
          </CharString>
          <CharString index="147">
            86 -18 callsubr
            -147 198 return
          </CharString>
          <CharString index="148">
            141 740 63 callsubr
            return
          </CharString>
          <CharString index="149">
            112 -83 98 -169 return
          </CharString>
          <CharString index="150">
            -141 vlineto
            return
          </CharString>
          <CharString index="151">
            14 243 rlineto
            -140 hlineto
            14 -243 59 callsubr
            12 return
          </CharString>
          <CharString index="152">
            149 128 78 142 52 return
          </CharString>
          <CharString index="153">
            51 86 32 -5 37 -12 39 hvcurveto
            return
          </CharString>
          <CharString index="154">
            149 hlineto
            return
          </CharString>
          <CharString index="155">
            -197 37 -181 rmoveto
            137 hlineto
            270 1128 rlineto
            93 callsubr
            endchar
          </CharString>
          <CharString index="156">
            700 rmoveto
            return
          </CharString>
          <CharString index="157">
            hmoveto
            -34 callsubr
            return
          </CharString>
          <CharString index="158">
            vhcurveto
            -57 vlineto
            84 41 51 86 33 -5 36 return
          </CharString>
          <CharString index="159">
            rmoveto
            95 hlineto
            13 213 rlineto
            -121 hlineto
            return
          </CharString>
          <CharString index="160">
            rlineto
            47 callsubr
            return
          </CharString>
          <CharString index="161">
            rmoveto
            -109 return
          </CharString>
          <CharString index="162">
            10 callsubr
            endchar
          </CharString>
          <CharString index="163">
            740 -8 callsubr
            -19 -34 vhcurveto
            -57 vlineto
            84 return
          </CharString>
          <CharString index="164">
            -223 75 79 callsubr
            32 callsubr
            return
          </CharString>
          <CharString index="165">
            hlineto
            393 700 rlineto
            93 callsubr
            return
          </CharString>
          <CharString index="166">
            -202 11 rlineto
            -108 vlineto
            202 return
          </CharString>
          <CharString index="167">
            rmoveto
            107 352 -164 -82 57 hlineto
            return
          </CharString>
          <CharString index="168">
            116 hlineto
            193 59 119 91 return
          </CharString>
          <CharString index="169">
            -140 -86 return
          </CharString>
          <CharString index="170">
            -141 hlineto
            return
          </CharString>
          <CharString index="171">
            -281 10 632 -10 callsubr
          </CharString>
          <CharString index="172">
            109 -58 19 vlineto
            41 17 20 return
          </CharString>
          <CharString index="173">
            -53 -22 -24 -35 -34 -22 24 53 return
          </CharString>
          <CharString index="174">
            -51 -86 -32 5 -37 12 -39 hvcurveto
            return
          </CharString>
          <CharString index="175">
            -61 -37 -41 -72 return
          </CharString>
          <CharString index="176">
            -11 39 hvcurveto
            return
          </CharString>
          <CharString index="177">
            hlineto
            250 -196 rmoveto
            207 196 -207 hlineto
            return
          </CharString>
          <CharString index="178">
            -93 140 return
          </CharString>
          <CharString index="179">
            hmoveto
            141 return
          </CharString>
          <CharString index="180">
            hlineto
            34 161 rlineto
            -132 hlineto
            -34 -161 rlineto
            return
          </CharString>
          <CharString index="181">
            45 36 35 45 45 -36 35 -45 -44 -36 -35 -45 return
          </CharString>
          <CharString index="182">
            32 callsubr
            endchar
          </CharString>
          <CharString index="183">
            -150 hlineto
            return
          </CharString>
          <CharString index="184">
            vvcurveto
            209 -158 148 -199 -198 return
          </CharString>
          <CharString index="185">
            rmoveto
            -174 return
          </CharString>
          <CharString index="186">
            698 rmoveto
            return
          </CharString>
          <CharString index="187">
            4 216 468 rmoveto
            return
          </CharString>
          <CharString index="188">
            700 rlineto
            -134 hlineto
            return
          </CharString>
          <CharString index="189">
            72 37 -41 -61 return
          </CharString>
          <CharString index="190">
            vhcurveto
            430 return
          </CharString>
          <CharString index="191">
            hlineto
            -43 -14 -31 -32 -53 vvcurveto
            endchar
          </CharString>
          <CharString index="192">
            43 callsubr
            endchar
          </CharString>
          <CharString index="193">
            vhcurveto
            -306 return
          </CharString>
          <CharString index="194">
            hlineto
            -12 -118 rlineto
            20 hlineto
            106 return
          </CharString>
          <CharString index="195">
            280 -1 rmoveto
            -68 -43 -32 -43 return
          </CharString>
          <CharString index="196">
            -572 rmoveto
            225 -154 vlineto
            return
          </CharString>
          <CharString index="197">
            159 135 94 return
          </CharString>
          <CharString index="198">
            75 72 callsubr
            return
          </CharString>
          <CharString index="199">
            -43 54 callsubr
            return
          </CharString>
          <CharString index="200">
            -137 hlineto
            return
          </CharString>
        <CharString name=".notdef">
          71 166 hmoveto
          422 701 -422 hlineto
          73 -68 rmoveto
          277 -565 -277 hlineto
          endchar
        </CharString>
        <CharString name="A">
          -91 callsubr
          16 -461 -15 callsubr
        </CharString>
        <CharString name="AE">
          266 478 605 rmoveto
          -366 -190 vlineto
          593 353 rmoveto
          108 -500 vlineto
          -370 -700 rlineto
          153 hlineto
          68 131 rlineto
          246 -131 -53 callsubr
          hlineto
          endchar
        </CharString>
        <CharString name="Aacute">
          -91 callsubr
          -205 137 -79 callsubr
          -9 -718 -15 callsubr
        </CharString>
        <CharString name="Abreve">
          -91 callsubr
          76 201 -36 callsubr
          -60 -662 -15 callsubr
        </CharString>
        <CharString name="Acircumflex">
          -91 callsubr
          65 143 -69 callsubr
          -49 -501 -15 callsubr
        </CharString>
        <CharString name="Adieresis">
          -91 callsubr
          -176 65 -103 callsubr
          7 -526 -15 callsubr
        </CharString>
        <CharString name="Agrave">
          -91 callsubr
          -205 143 -44 callsubr
          221 -718 -15 callsubr
        </CharString>
        <CharString name="Amacron">
          -91 callsubr
          -274 77 rmoveto
          382 100 -382 hlineto
          290 -638 -15 callsubr
        </CharString>
        <CharString name="Aogonek">
          22 22 hmoveto
          47 callsubr
          45 131 rlineto
          273 hlineto
          45 -133 rlineto
          -41 -14 -26 -31 -48 vvcurveto
          -52 callsubr
          65 hlineto
          -246 699 rlineto
          -167 hlineto
          183 -461 -15 callsubr
        </CharString>
        <CharString name="Aring">
          -91 callsubr
          -198 162 -66 callsubr
          49 -624 -15 callsubr
        </CharString>
        <CharString name="Atilde">
          -91 callsubr
          -261 54 -87 callsubr
          277 -515 -15 callsubr
        </CharString>
        <CharString name="B">
          -33 445 499 rmoveto
          -59 -41 -31 -61 vhcurveto
          -127 181 127 hlineto
          61 41 -32 -59 hvcurveto
          159 -316 rmoveto
          85 -58 75 -95 14 vhcurveto
          85 25 52 51 81 vvcurveto
          103 -83 81 -147 vhcurveto
          -283 -698 299 hlineto
          144 86 76 107 hvcurveto
          -142 21 rmoveto
          -60 -42 -36 -62 vhcurveto
          -142 193 141 hlineto
          61 44 -36 -61 hvcurveto
          endchar
        </CharString>
        <CharString name="C">
          -61 callsubr
          endchar
        </CharString>
        <CharString name="CR">
          -383 endchar
        </CharString>
        <CharString name="Cacute">
          -61 callsubr
          227 486 -86 callsubr
        </CharString>
        <CharString name="Ccaron">
          -61 callsubr
          349 489 -89 callsubr
        </CharString>
        <CharString name="Ccedilla">
          86 36 351 rmoveto
          -193 134 -140 176 -21 vhcurveto
          -116 -23 callsubr
          39 vlineto
          131 13 110 76 47 129 rrcurveto
          -62 callsubr
          endchar
        </CharString>
        <CharString name="D">
          -1 callsubr
          endchar
        </CharString>
        <CharString name="Dcaron">
          -1 callsubr
          50 733 -89 callsubr
        </CharString>
        <CharString name="Dcroat">
          -17 callsubr
        </CharString>
        <CharString name="E">
          -84 callsubr
          endchar
        </CharString>
        <CharString name="Eacute">
          -84 callsubr
          -326 245 -86 callsubr
        </CharString>
        <CharString name="Ecaron">
          -84 callsubr
          -204 248 -89 callsubr
        </CharString>
        <CharString name="Ecircumflex">
          -84 callsubr
          -56 251 -65 callsubr
        </CharString>
        <CharString name="Edieresis">
          -84 callsubr
          -298 173 -101 callsubr
        </CharString>
        <CharString name="Edotaccent">
          -84 callsubr
          -205 173 -30 callsubr
        </CharString>
        <CharString name="Egrave">
          -84 callsubr
          -326 251 -45 callsubr
        </CharString>
        <CharString name="Emacron">
          -84 callsubr
          -396 185 -10 callsubr
        </CharString>
        <CharString name="Eogonek">
          -22 callsubr
          250 hlineto
          -36 -16 -26 -31 -48 vvcurveto
          -52 callsubr
          172 -33 callsubr
          262 hlineto
          endchar
        </CharString>
        <CharString name="Eth">
          -17 callsubr
        </CharString>
        <CharString name="Euro">
          123 447 387 rmoveto
          92 -183 vlineto
          63 37 65 37 81 hhcurveto
          73 54 -43 callsubr
          -154 -131 -90 -139 -50 hvcurveto
          -89 -92 69 hlineto
          -1 -12 -1 -12 -12 vvcurveto
          -13 1 -12 1 -12 vhcurveto
          -69 -90 88 hlineto
          -140 50 132 -90 154 hhcurveto
          45 callsubr
          hvcurveto
          -169 hlineto
          -63 -33 -54 -29 -73 hhcurveto
          -82 -65 38 64 -36 hvcurveto
          183 90 -212 hlineto
          -1 12 -1 12 13 vvcurveto
          12 1 12 1 12 vhcurveto
          endchar
        </CharString>
        <CharString name="F">
          -140 91 callsubr
          299 222 108 -222 183 291 108 -432 hlineto
          endchar
        </CharString>
        <CharString name="G">
          86 36 351 -63 callsubr
          endchar
        </CharString>
        <CharString name="Gbreve">
          86 36 351 -63 callsubr
          508 550 -36 callsubr
          endchar
        </CharString>
        <CharString name="H">
          49 516 72 callsubr
          698 -141 -291 -300 291 -141 -698 141 299 300 hlineto
          endchar
        </CharString>
        <CharString name="I">
          6 callsubr
          endchar
        </CharString>
        <CharString name="ITF">
          1051 147 hmoveto
          207 671 -207 70 callsubr
          250 -671 rmoveto
          207 671 -207 hlineto
          249 -196 rmoveto
          208 196 -208 hlineto
          250 -671 rmoveto
          208 671 -208 70 callsubr
          -434 vmoveto
          207 196 -207 hlineto
          endchar
        </CharString>
        <CharString name="Iacute">
          6 callsubr
          -51 2 callsubr
        </CharString>
        <CharString name="Icircumflex">
          6 callsubr
          219 145 -65 callsubr
        </CharString>
        <CharString name="Idieresis">
          6 callsubr
          -22 67 -101 callsubr
        </CharString>
        <CharString name="Idotaccent">
          6 callsubr
          70 67 -30 callsubr
        </CharString>
        <CharString name="Igrave">
          6 callsubr
          -51 145 -45 callsubr
        </CharString>
        <CharString name="Imacron">
          6 callsubr
          -120 79 -10 callsubr
        </CharString>
        <CharString name="Iogonek">
          1 -95 rmoveto
          -52 callsubr
          762 -141 -694 84 callsubr
        </CharString>
        <CharString name="J">
          -105 332 208 rmoveto
          -58 -29 -32 -48 -48 -28 32 58 -1 vhcurveto
          63 callsubr
          -138 93 -77 125 124 93 77 138 vhcurveto
          490 -140 vlineto
          endchar
        </CharString>
        <CharString name="K">
          -9 75 hmoveto
          14 callsubr
        </CharString>
        <CharString name="L">
          57 callsubr
          endchar
        </CharString>
        <CharString name="Lacute">
          57 callsubr
          -107 2 callsubr
        </CharString>
        <CharString name="Lcaron">
          -192 315 79 callsubr
          -108 34 callsubr
          -34 vhcurveto
          -57 vlineto
          84 42 51 86 33 -5 36 -12 39 hvcurveto
          -356 hmoveto
          75 callsubr
        </CharString>
        <CharString name="Lslash">
          -223 14 252 rmoveto
          67 19 rlineto
          -271 365 107 -224 205 vlineto
          78 22 rlineto
          132 vlineto
          -78 -22 rlineto
          254 -141 -295 vlineto
          -67 -19 rlineto
          endchar
        </CharString>
        <CharString name="M">
          228 91 callsubr
          439 hlineto
          189 -439 rlineto
          101 hlineto
          190 441 rlineto
          -441 140 698 -156 vlineto
          -224 -517 -224 517 rlineto
          -157 hlineto
          endchar
        </CharString>
        <CharString name="N">
          -38 callsubr
          endchar
        </CharString>
        <CharString name="NULL">
          -683 endchar
        </CharString>
        <CharString name="Nacute">
          -38 callsubr
          -420 137 -86 callsubr
        </CharString>
        <CharString name="Ncaron">
          -38 callsubr
          -299 140 -89 callsubr
        </CharString>
        <CharString name="Ntilde">
          -38 callsubr
          -477 54 -77 callsubr
        </CharString>
        <CharString name="O">
          -104 callsubr
          endchar
        </CharString>
        <CharString name="OE">
          395 179 351 rmoveto
          -19 callsubr
          126 87 -89 -139 9 callsubr
          -126 -88 90 139 vhcurveto
          830 239 rmoveto
          108 -403 -88 vlineto
          65 -55 -75 33 -83 hhcurveto
          -197 -160 -147 -210 -210 159 -148 198 83 75 33 63 55 hvcurveto
          -89 403 108 -262 191 -9 callsubr
          vlineto
          endchar
        </CharString>
        <CharString name="Oacute">
          -104 callsubr
          -334 486 -86 callsubr
        </CharString>
        <CharString name="Ocircumflex">
          -104 callsubr
          -65 492 -65 callsubr
        </CharString>
        <CharString name="Odieresis">
          -104 callsubr
          -306 414 -101 callsubr
        </CharString>
        <CharString name="Ograve">
          -104 callsubr
          -334 492 -45 callsubr
        </CharString>
        <CharString name="Ohungarumlaut">
          -104 callsubr
          -91 583 -41 callsubr
        </CharString>
        <CharString name="Omacron">
          -104 callsubr
          -404 426 -10 callsubr
        </CharString>
        <CharString name="Oslash">
          103 25 hmoveto
          97 hlineto
          56 61 rlineto
          -43 60 74 -25 81 hhcurveto
          1 callsubr
          96 -33 83 -55 61 hvcurveto
          99 109 rlineto
          -97 hlineto
          -55 -60 rlineto
          43 -60 -75 25 -81 hhcurveto
          -39 callsubr
          -96 33 -84 56 -62 hvcurveto
          54 242 rmoveto
          -19 callsubr
          49 43 -13 -25 34 vhcurveto
          -301 -330 rlineto
          -25 37 -14 48 55 vvcurveto
          427 hmoveto
          9 callsubr
          -48 -43 13 24 -34 vhcurveto
          301 330 rlineto
          24 -37 13 -46 -55 vvcurveto
          endchar
        </CharString>
        <CharString name="Otilde">
          -104 callsubr
          -391 403 -77 callsubr
        </CharString>
        <CharString name="P">
          -68 216 386 rmoveto
          204 116 vlineto
          82 callsubr
          68 callsubr
          hvcurveto
          252 102 rmoveto
          42 callsubr
          vhcurveto
          -257 -698 141 278 61 callsubr
          hvcurveto
          endchar
        </CharString>
        <CharString name="Q">
          107 -27 callsubr
          31 30 4 7 29 vhcurveto
          103 -125 rlineto
          174 hlineto
          -155 180 rlineto
          88 63 57 103 126 vvcurveto
          -98 callsubr
          endchar
        </CharString>
        <CharString name="R">
          -56 callsubr
          endchar
        </CharString>
        <CharString name="Racute">
          -56 callsubr
          -129 2 callsubr
        </CharString>
        <CharString name="Rcaron">
          -56 callsubr
          -7 142 -89 callsubr
        </CharString>
        <CharString name="S">
          -70 callsubr
          endchar
        </CharString>
        <CharString name="Sacute">
          -70 callsubr
          -15 329 -86 callsubr
        </CharString>
        <CharString name="Scaron">
          -70 callsubr
          107 332 -89 callsubr
        </CharString>
        <CharString name="T">
          -99 34 590 26 callsubr
          endchar
        </CharString>
        <CharString name="Tcaron">
          -99 34 590 26 callsubr
          259 142 -89 callsubr
        </CharString>
        <CharString name="Thorn">
          -68 216 248 rmoveto
          205 116 vlineto
          72 37 -42 -61 68 callsubr
          hvcurveto
          252 102 rmoveto
          112 -83 99 -169 vhcurveto
          -119 139 -138 -700 141 140 61 callsubr
          hvcurveto
          endchar
        </CharString>
        <CharString name="U">
          -93 callsubr
          endchar
        </CharString>
        <CharString name="Uacute">
          -93 callsubr
          161 2 callsubr
        </CharString>
        <CharString name="Ucircumflex">
          -93 callsubr
          430 145 -65 callsubr
        </CharString>
        <CharString name="Udieresis">
          -93 callsubr
          189 67 -101 callsubr
        </CharString>
        <CharString name="Ugrave">
          -93 callsubr
          161 145 -45 callsubr
        </CharString>
        <CharString name="Uhungarumlaut">
          -93 callsubr
          404 236 -41 callsubr
        </CharString>
        <CharString name="Umacron">
          -93 callsubr
          91 79 -10 callsubr
        </CharString>
        <CharString name="Uogonek">
          26 73 268 rmoveto
          -161 98 -88 123 -21 vhcurveto
          -2 -9 -2 -10 -10 vvcurveto
          7 callsubr
          -101 hlineto
          -31 -13 11 20 18 14 10 40 11 hvcurveto
          88 26 98 77 158 vvcurveto
          -71 callsubr
          endchar
        </CharString>
        <CharString name="Uring">
          -93 callsubr
          167 164 -66 callsubr
          endchar
        </CharString>
        <CharString name="V">
          26 269 hmoveto
          170 hlineto
          256 698 rlineto
          76 callsubr
          -191 -557 -191 557 rlineto
          -149 hlineto
          endchar
        </CharString>
        <CharString name="W">
          337 211 hmoveto
          160 hlineto
          139 487 135 -487 rlineto
          160 hlineto
          202 698 rlineto
          -151 hlineto
          -126 -534 -133 534 rlineto
          -159 hlineto
          -141 -539 -134 539 rlineto
          76 callsubr
          endchar
        </CharString>
        <CharString name="X">
          13 487 hmoveto
          159 hlineto
          -218 349 218 349 35 callsubr
          -135 -230 -144 230 rlineto
          -159 hlineto
          219 -349 -219 -349 rlineto
          159 hlineto
          134 230 rlineto
          endchar
        </CharString>
        <CharString name="Y">
          -11 callsubr
          endchar
        </CharString>
        <CharString name="Yacute">
          -11 callsubr
          186 2 callsubr
        </CharString>
        <CharString name="Ydieresis">
          -11 callsubr
          214 67 -101 callsubr
        </CharString>
        <CharString name="Z">
          -35 callsubr
          endchar
        </CharString>
        <CharString name="Zacute">
          -35 callsubr
          -360 247 -86 callsubr
        </CharString>
        <CharString name="Zcaron">
          -35 callsubr
          -238 250 -89 callsubr
        </CharString>
        <CharString name="Zdotaccent">
          -35 callsubr
          -239 175 -30 callsubr
        </CharString>
        <CharString name="a">
          -106 callsubr
          endchar
        </CharString>
        <CharString name="aacute">
          -106 callsubr
          -250 415 -86 callsubr
        </CharString>
        <CharString name="abreve">
          -106 callsubr
          31 479 -36 callsubr
          endchar
        </CharString>
        <CharString name="acircumflex">
          -106 callsubr
          20 421 -65 callsubr
        </CharString>
        <CharString name="acute">
          -433 10 692 -86 callsubr
        </CharString>
        <CharString name="adieresis">
          -106 callsubr
          -221 343 -101 callsubr
        </CharString>
        <CharString name="ae">
          410 1039 171 rmoveto
          -152 hlineto
          -34 -18 -38 -26 -57 hhcurveto
          -56 -69 35 85 -13 hvcurveto
          417 hlineto
          3 19 1 18 17 vvcurveto
          164 -111 113 -151 -73 -62 -24 -63 -49 vhcurveto
          79 -140 -79 vlineto
          59 -40 -59 28 -76 hhcurveto
          -145 -115 -114 -170 -47 callsubr
          79 60 38 56 39 hvcurveto
          -86 140 86 vlineto
          -57 35 75 -37 79 hhcurveto
          121 87 77 102 31 hvcurveto
          -262 272 rmoveto
          77 54 -47 -74 4 hvcurveto
          -277 hlineto
          73 11 61 48 70 hhcurveto
          -598 -165 rmoveto
          -49 callsubr
          -48 callsubr
          vhcurveto
          endchar
        </CharString>
        <CharString name="agrave">
          -106 callsubr
          -250 421 -45 callsubr
        </CharString>
        <CharString name="amacron">
          -106 callsubr
          -319 355 -10 callsubr
        </CharString>
        <CharString name="ampersand">
          5 153 212 rmoveto
          57 44 45 55 55 45 -45 -57 -58 -45 -46 -55 -55 -44 46 58 vhcurveto
          -7 354 rmoveto
          -45 19 -41 40 -58 vhcurveto
          -94 -13 -78 -84 -115 vvcurveto
          -124 97 -93 121 84 71 48 65 35 vhcurveto
          77 -106 rlineto
          164 hlineto
          -369 492 rlineto
          -23 31 -7 17 23 vvcurveto
          31 23 27 35 35 24 -25 -35 -13 -3 -15 -6 -11 vhcurveto
          135 hlineto
          8 16 4 21 20 vvcurveto
          81 -70 80 -127 -128 -67 -85 -89 vhcurveto
          endchar
        </CharString>
        <CharString name="aogonek">
          -78 callsubr
          -88 vlineto
          -43 -14 -32 -33 -53 vvcurveto
          -52 callsubr
          618 62 callsubr
          hlineto
          -99 callsubr
          endchar
        </CharString>
        <CharString name="approxequal">
          -94 33 153 rmoveto
          -24 callsubr
          235 vmoveto
          -24 callsubr
          endchar
        </CharString>
        <CharString name="aring">
          -106 callsubr
          -243 440 -66 callsubr
          endchar
        </CharString>
        <CharString name="asciicircum">
          -3 503 167 rmoveto
          144 hlineto
          -239 533 rlineto
          -135 hlineto
          -240 -533 rlineto
          143 hlineto
          164 367 rlineto
          endchar
        </CharString>
        <CharString name="asciitilde">
          -94 33 224 rmoveto
          -24 callsubr
          endchar
        </CharString>
        <CharString name="asterisk">
          -165 313 738 rmoveto
          -105 hlineto
          23 -140 -111 89 -51 -92 129 -45 -130 -47 55 -95 107 90 -22 -138 rlineto
          104 hlineto
          -23 138 107 -89 53 93 -131 47 131 47 -50 91 -110 -89 rlineto
          endchar
        </CharString>
        <CharString name="at">
          548 743 277 rmoveto
          -103 -14 -77 -61 -69 hhcurveto
          -70 -59 61 103 15 hvcurveto
          102 14 76 61 70 hhcurveto
          69 60 -60 -103 -15 hvcurveto
          -412 1 rmoveto
          -170 -24 107 -116 131 hhcurveto
          92 64 51 73 42 hvcurveto
          -74 7 44 -50 93 hhcurveto
          152 150 155 212 276 -200 168 -295 -363 -288 -235 -347 -294 212 -185 315 -3 hvcurveto
          28 111 rlineto
          -263 3 -149 143 225 vvcurveto
          262 204 209 287 229 139 -134 -199 -155 -90 -91 -58 -26 -13 18 33 4 vhcurveto
          20 136 rlineto
          159 22 -102 102 -149 hhcurveto
          -161 -138 -113 -170 -23 hvcurveto
          endchar
        </CharString>
        <CharString name="atilde">
          -106 callsubr
          -306 332 -77 callsubr
        </CharString>
        <CharString name="b">
          80 callsubr
          272 -141 -740 141 93 -46 callsubr
        </CharString>
        <CharString name="backslash">
          74 310 947 rmoveto
          93 callsubr
          285 -1128 rlineto
          136 hlineto
          endchar
        </CharString>
        <CharString name="bar">
          -332 105 808 rmoveto
          -928 141 928 vlineto
          endchar
        </CharString>
        <CharString name="braceleft">
          -147 235 373 rmoveto
          73 14 32 45 66 65 -16 49 78 vvcurveto
          136 55 90 78 29 vhcurveto
          16 -143 vlineto
          -38 -17 -91 -52 -185 -72 17 -54 -69 vvcurveto
          -45 -17 -61 -81 -8 vhcurveto
          -52 vlineto
          81 -9 17 -60 -45 -69 -17 -54 -72 vvcurveto
          -185 91 -52 38 -17 vhcurveto
          143 16 hlineto
          -78 29 -55 90 136 78 16 49 65 vvcurveto
          66 -31 45 -74 14 vhcurveto
          endchar
        </CharString>
        <CharString name="braceright">
          -158 302 371 rmoveto
          -74 -14 -31 -45 -66 -65 16 -49 -78 vvcurveto
          -136 -55 -90 -78 -29 vhcurveto
          -16 142 vlineto
          38 17 91 52 185 72 -17 54 69 vvcurveto
          45 18 60 80 9 vhcurveto
          52 vlineto
          -80 8 -18 61 45 69 17 54 72 vvcurveto
          185 -91 52 -38 17 vhcurveto
          -142 -16 hlineto
          78 -29 55 -90 -136 -78 -16 -49 -65 vvcurveto
          -66 32 -45 73 -14 vhcurveto
          endchar
        </CharString>
        <CharString name="bracketleft">
          -186 135 -181 rmoveto
          251 115 -119 898 119 115 -251 hlineto
          endchar
        </CharString>
        <CharString name="bracketright">
          -188 361 947 rmoveto
          -251 -115 119 -898 -119 -115 251 hlineto
          endchar
        </CharString>
        <CharString name="breve">
          -344 329 756 -36 callsubr
          endchar
        </CharString>
        <CharString name="brokenbar">
          -332 105 278 rmoveto
          -398 141 398 vlineto
          132 vmoveto
          398 -141 -398 vlineto
          endchar
        </CharString>
        <CharString name="bullet">
          -203 240 194 rmoveto
          79 61 61 78 79 -61 62 -79 -78 -62 -62 -79 -78 62 -61 78 hvcurveto
          endchar
        </CharString>
        <CharString name="c">
          -58 callsubr
          endchar
        </CharString>
        <CharString name="cacute">
          -58 callsubr
          143 415 -86 callsubr
        </CharString>
        <CharString name="caron">
          -366 159 695 -89 callsubr
        </CharString>
        <CharString name="ccaron">
          -58 callsubr
          264 418 -89 callsubr
        </CharString>
        <CharString name="ccedilla">
          -83 36 277 rmoveto
          -156 92 -106 134 -20 vhcurveto
          -114 -23 callsubr
          37 vlineto
          113 14 78 72 28 101 rrcurveto
          -57 callsubr
          endchar
        </CharString>
        <CharString name="cedilla">
          -388 155 7 rmoveto
          -88 -126 55 hlineto
          -31 callsubr
          endchar
        </CharString>
        <CharString name="cent">
          -21 328 405 rmoveto
          62 37 -27 -44 13 hvcurveto
          130 hlineto
          -8 101 -84 70 -115 12 rrcurveto
          85 -72 -85 vlineto
          -152 -14 -78 -105 -140 vvcurveto
          -140 78 -106 152 -14 vhcurveto
          -85 72 85 vlineto
          115 12 84 71 8 100 rrcurveto
          -130 hlineto
          -43 -13 -37 -27 -62 hhcurveto
          -82 -51 55 92 92 51 55 82 hvcurveto
          endchar
        </CharString>
        <CharString name="circumflex">
          -366 307 698 -65 callsubr
        </CharString>
        <CharString name="colon">
          -370 154 hmoveto
          45 35 35 45 45 -35 35 -45 -45 -35 -35 -45 -45 35 -35 45 hvcurveto
          410 vmoveto
          45 35 35 44 46 -35 35 -45 -45 -35 -35 -46 -44 35 -35 45 hvcurveto
          endchar
        </CharString>
        <CharString name="comma">
          -4 callsubr
        </CharString>
        <CharString name="copyright">
          106 744 350 rmoveto
          -209 -142 -149 -208 -207 -143 149 209 210 143 148 207 208 142 -148 -210 vhcurveto
          -645 hmoveto
          -185 113 -124 182 182 114 124 185 187 -114 121 -182 -182 -113 -121 -187 vhcurveto
          72 1 rmoveto
          -140 94 -88 125 105 78 60 90 25 vhcurveto
          -123 hlineto
          -35 -16 -23 -18 -46 hhcurveto
          -63 -38 49 82 82 38 48 63 43 29 -19 -34 13 hvcurveto
          123 hlineto
          96 -25 -78 54 -105 hhcurveto
          -125 -94 -87 -140 hvcurveto
          endchar
        </CharString>
        <CharString name="currency">
          -121 86 378 rmoveto
          -41 11 -36 20 -28 vhcurveto
          -57 -57 58 -58 62 62 rlineto
          -14 28 34 -8 38 hhcurveto
          38 35 8 14 29 hvcurveto
          62 -62 58 58 -57 57 rlineto
          20 29 11 35 41 vvcurveto
          42 -12 35 -20 28 vhcurveto
          58 58 -58 59 -64 -64 rlineto
          13 -29 -33 7 -37 hhcurveto
          -37 -33 -7 -13 -29 hvcurveto
          -64 64 -58 -59 58 -58 rlineto
          -20 -28 -12 -35 -42 vvcurveto
          88 callsubr
          -43 -42 32 68 69 42 32 44 43 42 -32 -69 vhcurveto
          endchar
        </CharString>
        <CharString name="d">
          -78 callsubr
          71 callsubr
          740 -140 -272 -100 callsubr
          endchar
        </CharString>
        <CharString name="dagger">
          -66 364 543 rmoveto
          44 callsubr
          -14 -722 rlineto
          140 hlineto
          -14 722 203 -12 rlineto
          108 vlineto
          endchar
        </CharString>
        <CharString name="daggerdbl">
          -66 567 554 rmoveto
          -203 -11 44 callsubr
          rlineto
          -393 vlineto
          59 callsubr
          11 -14 -243 rlineto
          140 hlineto
          -14 243 203 -11 rlineto
          108 vlineto
          -203 -11 rlineto
          393 vlineto
          203 -12 rlineto
          endchar
        </CharString>
        <CharString name="dcaron">
          123 663 56 callsubr
          42 51 86 32 -6 37 69 callsubr
          -743 -462 -82 callsubr
          71 callsubr
          740 -140 -272 -100 callsubr
          endchar
        </CharString>
        <CharString name="dcroat">
          4 392 591 rmoveto
          80 -123 hlineto
          -80 callsubr
          -76 callsubr
          hvcurveto
          71 callsubr
          591 58 73 -58 76 -140 -76 -80 vlineto
          80 -387 -92 callsubr
          endchar
        </CharString>
        <CharString name="degree">
          -239 27 527 rmoveto
          -110 80 -70 114 114 82 70 110 110 -81 68 -114 -114 -81 -68 -110 vhcurveto
          88 callsubr
          -44 -41 32 68 69 42 33 44 43 42 -33 -69 vhcurveto
          endchar
        </CharString>
        <CharString name="dieresis">
          -346 76 620 -101 callsubr
        </CharString>
        <CharString name="divide">
          -37 322 63 rmoveto
          45 36 36 44 45 -36 36 -45 -44 -36 -36 -45 -44 36 -36 44 hvcurveto
          426 vmoveto
          45 36 35 44 46 -36 35 -45 -44 -36 -35 -46 -44 36 -35 44 hvcurveto
          -254 -196 rmoveto
          510 126 -510 hlineto
          endchar
        </CharString>
        <CharString name="dollar">
          -36 285 -87 rmoveto
          58 81 hlineto
          138 11 83 95 103 vvcurveto
          148 -120 25 -101 26 vhcurveto
          189 vlineto
          40 -12 26 -31 4 -40 rrcurveto
          147 hlineto
          -7 129 -86 62 -124 8 rrcurveto
          81 -58 -81 vlineto
          -128 -10 -97 -79 -119 vvcurveto
          -148 123 -25 102 -27 vhcurveto
          -191 vlineto
          -46 9 -25 31 -4 49 rrcurveto
          76 callsubr
          -123 92 -71 133 -9 vhcurveto
          -79 514 rmoveto
          52 34 26 45 7 vhcurveto
          -174 vlineto
          -46 16 -33 24 49 vvcurveto
          213 -313 rmoveto
          -44 -28 -34 -48 -9 vhcurveto
          174 vlineto
          44 -17 32 -23 -47 vvcurveto
          endchar
        </CharString>
        <CharString name="dotaccent">
          -531 76 620 -30 callsubr
        </CharString>
        <CharString name="dotlessi">
          15 callsubr
          endchar
        </CharString>
        <CharString name="e">
          -107 callsubr
          endchar
        </CharString>
        <CharString name="eacute">
          -107 callsubr
          -118 249 -86 callsubr
        </CharString>
        <CharString name="ecaron">
          -107 callsubr
          3 252 -89 callsubr
        </CharString>
        <CharString name="ecircumflex">
          -107 callsubr
          151 255 -65 callsubr
        </CharString>
        <CharString name="edieresis">
          -107 callsubr
          -90 177 -101 callsubr
        </CharString>
        <CharString name="edotaccent">
          -107 callsubr
          3 177 -30 callsubr
        </CharString>
        <CharString name="egrave">
          -107 callsubr
          -118 255 -45 callsubr
        </CharString>
        <CharString name="eight">
          -40 175 394 rmoveto
          -72 -31 -45 -63 -89 vvcurveto
          -141 114 -86 149 151 113 86 141 89 -44 63 -73 31 vhcurveto
          57 30 42 54 76 vvcurveto
          103 -79 96 -167 -166 -80 -95 -103 -82 41 -48 59 -31 vhcurveto
          146 243 rmoveto
          67 43 -37 -65 -60 -47 -41 -63 -62 -47 40 60 67 45 36 64 hvcurveto
          -304 vmoveto
          77 47 -44 -71 -68 -44 -50 -80 -81 -47 49 68 77 54 39 74 hvcurveto
          endchar
        </CharString>
        <CharString name="ellipsis">
          -4 339 50 callsubr
          217 50 callsubr
          -434 50 callsubr
          endchar
        </CharString>
        <CharString name="emacron">
          -107 callsubr
          -188 189 -10 callsubr
        </CharString>
        <CharString name="emdash">
          244 79 298 rmoveto
          769 117 -769 hlineto
          endchar
        </CharString>
        <CharString name="endash">
          19 79 298 rmoveto
          544 117 -544 hlineto
          endchar
        </CharString>
        <CharString name="eogonek">
          -59 36 278 rmoveto
          -163 100 -108 143 -14 vhcurveto
          -1 -4 -1 -6 -6 vvcurveto
          -74 61 -40 68 vhcurveto
          123 82 -89 hlineto
          -35 -21 2 30 17 11 9 26 9 hvcurveto
          62 24 62 55 24 80 rrcurveto
          -96 callsubr
          vhcurveto
          273 165 -54 callsubr
          endchar
        </CharString>
        <CharString name="equal">
          94 116 173 rmoveto
          545 125 -545 hlineto
          115 vmoveto
          545 126 -545 hlineto
          endchar
        </CharString>
        <CharString name="estimated">
          70 685 135 rmoveto
          -52 59 rlineto
          -74 -74 -75 -43 -99 hhcurveto
          -74 -55 24 44 -47 hvcurveto
          173 504 62 vlineto
          169 -120 159 -217 -216 -120 -164 -210 -218 148 -123 197 118 98 53 89 84 vhcurveto
          -476 262 rmoveto
          161 vlineto
          45 41 56 23 70 hhcurveto
          67 58 -21 -38 39 hvcurveto
          -170 vlineto
          endchar
        </CharString>
        <CharString name="eth">
          -39 11 callsubr
          161 126 110 215 125 -46 116 -79 98 vhcurveto
          66 21 rlineto
          64 vlineto
          -111 -35 -11 12 -12 11 -13 11 rlinecurve
          -135 hlineto
          27 -22 24 -21 21 -23 -71 -22 rcurveline
          -64 vlineto
          115 36 27 -34 22 -36 16 -37 rlinecurve
          29 -40 -42 16 -53 hhcurveto
          -155 -121 -110 -174 hvcurveto
          endchar
        </CharString>
        <CharString name="exclam">
          -264 158 235 rmoveto
          118 hlineto
          16 516 rlineto
          76 callsubr
          78 -751 rmoveto
          74 callsubr
          -45 36 -35 44 hvcurveto
          endchar
        </CharString>
        <CharString name="exclamdown">
          -244 158 327 rmoveto
          118 hlineto
          16 -516 rlineto
          76 callsubr
          78 751 rmoveto
          45 36 -35 -45 -45 -36 -35 -45 -44 -36 35 45 45 36 35 44 hvcurveto
          endchar
        </CharString>
        <CharString name="f">
          -349 22 callsubr
          endchar
        </CharString>
        <CharString name="fi">
          -59 84 hmoveto
          140 439 185 -439 140 554 -325 4 callsubr
          395 170 rmoveto
          48 37 38 48 48 -37 38 -48 -48 -37 -38 -48 -48 37 -38 48 hvcurveto
          endchar
        </CharString>
        <CharString name="five">
          -39 91 731 rmoveto
          -430 134 vlineto
          44 13 38 33 59 hhcurveto
          79 41 -47 -80 -78 -37 -57 -83 -67 -44 34 51 -12 hvcurveto
          -138 hlineto
          -115 15 90 -86 154 hhcurveto
          169 88 105 150 106 -55 135 -179 -59 -52 -25 -29 -26 hvcurveto
          166 319 123 vlineto
          endchar
        </CharString>
        <CharString name="fl">
          -59 22 callsubr
          325 -439 rmoveto
          29 callsubr
        </CharString>
        <CharString name="florin">
          -349 1 439 rmoveto
          58 hlineto
          -54 -511 rlineto
          -35 -3 -14 -15 -27 hhcurveto
          -17 87 callsubr
          75 41 127 13 hvcurveto
          54 511 rlineto
          88 hlineto
          12 115 rlineto
          -87 hlineto
          3 31 rlineto
          54 6 22 20 59 hhcurveto
          12 118 rlineto
          -151 -75 -58 -134 -14 hvcurveto
          -3 -31 rlineto
          -60 hlineto
          endchar
        </CharString>
        <CharString name="four">
          -22 397 hmoveto
          140 142 88 122 -88 456 -163 hlineto
          -326 -468 rlineto
          -110 349 vlineto
          -191 122 rmoveto
          200 304 rlineto
          -304 vlineto
          endchar
        </CharString>
        <CharString name="fraction">
          -104 32 hmoveto
          137 58 callsubr
          endchar
        </CharString>
        <CharString name="g">
          4 472 277 -75 callsubr
          endchar
        </CharString>
        <CharString name="gbreve">
          4 472 277 -75 callsubr
          467 478 -36 callsubr
          endchar
        </CharString>
        <CharString name="germandbls">
          29 75 528 rmoveto
          -528 141 vlineto
          -1 529 rlineto
          62 42 37 51 51 37 -39 -51 -37 -15 -29 -34 -20 vhcurveto
          -25 -14 rlineto
          -61 vlineto
          153 -91 rlineto
          49 -29 20 -26 -37 vvcurveto
          -41 -31 -39 -45 -44 -29 26 44 -5 vhcurveto
          -114 hlineto
          -121 1 90 -71 108 hhcurveto
          114 99 81 121 91 -40 55 -97 57 hvcurveto
          -89 52 rlineto
          55 33 24 39 52 vvcurveto
          87 -72 90 -154 -147 -93 -84 -138 vhcurveto
          endchar
        </CharString>
        <CharString name="grave">
          -412 10 698 -45 callsubr
        </CharString>
        <CharString name="greater">
          -107 90 132 rmoveto
          176 hlineto
          218 224 -218 224 rlineto
          -176 hlineto
          218 -224 rlineto
          endchar
        </CharString>
        <CharString name="greaterequal">
          -134 255 205 rmoveto
          218 188 -218 187 rlineto
          -179 hlineto
          214 -187 -214 -188 rlineto
          5 -62 rmoveto
          -107 382 107 vlineto
          endchar
        </CharString>
        <CharString name="guillemotleft">
          -163 174 295 19 callsubr
          114 175 19 callsubr
          endchar
        </CharString>
        <CharString name="guillemotright">
          -163 387 120 rmoveto
          23 callsubr
          -73 hmoveto
          23 callsubr
          endchar
        </CharString>
        <CharString name="guilsinglleft">
          -368 174 295 19 callsubr
          endchar
        </CharString>
        <CharString name="guilsinglright">
          -368 182 120 rmoveto
          23 callsubr
          endchar
        </CharString>
        <CharString name="h">
          -10 75 hmoveto
          -72 callsubr
          269 85 callsubr
        </CharString>
        <CharString name="hungarumlaut">
          -282 276 789 -41 callsubr
        </CharString>
        <CharString name="hyphen">
          36 callsubr
        </CharString>
        <CharString name="i">
          15 callsubr
          70 55 20 callsubr
          endchar
        </CharString>
        <CharString name="iacute">
          15 callsubr
          -51 17 callsubr
        </CharString>
        <CharString name="icircumflex">
          15 callsubr
          219 144 -65 callsubr
        </CharString>
        <CharString name="idieresis">
          15 callsubr
          -22 66 -101 callsubr
        </CharString>
        <CharString name="igrave">
          15 callsubr
          -51 144 -45 callsubr
        </CharString>
        <CharString name="imacron">
          15 callsubr
          -120 78 -10 callsubr
        </CharString>
        <CharString name="indianrupee">
          -55 48 602 rmoveto
          311 -74 -311 -98 306 hlineto
          -83 -15 -57 -8 -195 hhcurveto
          -131 vlineto
          -142 76 -76 139 139 77 70 137 1 vhcurveto
          -130 hlineto
          -55 -19 -45 -66 -72 -14 48 55 vhcurveto
          45 vlineto
          171 75 58 127 21 hvcurveto
          107 98 -101 74 101 98 -544 hlineto
          endchar
        </CharString>
        <CharString name="infinity">
          54 29 347 rmoveto
          -103 69 -59 98 -1 vhcurveto
          72 -1 59 38 37 52 rrcurveto
          -47 44 54 -42 78 hhcurveto
          92 76 61 103 103 -70 59 -97 1 hvcurveto
          -74 1 -60 -40 -36 -54 rrcurveto
          49 -42 -51 44 -81 hhcurveto
          -92 -76 -61 -103 hvcurveto
          178 -66 rmoveto
          -38 -27 23 43 43 27 24 38 37 30 -33 -40 33 hvcurveto
          -37 -25 -38 -23 -37 hhcurveto
          323 hmoveto
          -43 -31 30 38 -31 hvcurveto
          40 25 41 25 39 hhcurveto
          38 27 -23 -43 -43 -27 -24 -38 hvcurveto
          endchar
        </CharString>
        <CharString name="integral">
          -403 27 -72 rmoveto
          -35 -4 -13 -15 -28 hhcurveto
          -16 87 callsubr
          74 41 127 14 hvcurveto
          88 837 rlineto
          35 4 14 15 27 hhcurveto
          17 hlineto
          11 118 rlineto
          -19 hlineto
          -107 -74 -41 -127 -13 hvcurveto
          endchar
        </CharString>
        <CharString name="iogonek">
          145 609 20 callsubr
          -144 -704 rmoveto
          -52 callsubr
          618 -141 -550 84 callsubr
        </CharString>
        <CharString name="j">
          145 609 20 callsubr
          -70 -55 rmoveto
          -650 vlineto
          -34 -15 -15 -43 vhcurveto
          -40 -119 62 hlineto
          107 70 42 126 hvcurveto
          650 vlineto
          endchar
        </CharString>
        <CharString name="k">
          -83 75 hmoveto
          13 callsubr
        </CharString>
        <CharString name="l">
          75 hmoveto
          29 callsubr
        </CharString>
        <CharString name="lacute">
          75 hmoveto
          41 callsubr
          -51 17 callsubr
        </CharString>
        <CharString name="lcaron">
          -213 294 56 callsubr
          41 51 86 32 -5 37 69 callsubr
          -335 -740 rmoveto
          29 callsubr
        </CharString>
        <CharString name="less">
          -98 258 356 rmoveto
          219 224 rlineto
          -177 hlineto
          -218 -224 218 -224 rlineto
          177 hlineto
          endchar
        </CharString>
        <CharString name="lessequal">
          -134 473 205 rmoveto
          -214 188 214 187 rlineto
          -179 hlineto
          -218 -187 218 -188 rlineto
          -209 -169 rmoveto
          383 107 -383 hlineto
          endchar
        </CharString>
        <CharString name="logicalnot">
          76 36 330 rmoveto
          526 -135 140 243 -666 hlineto
          endchar
        </CharString>
        <CharString name="lozenge">
          -122 26 352 rmoveto
          255 -255 254 255 -254 254 rlineto
          114 -254 rmoveto
          -114 -116 -115 116 115 115 rlineto
          endchar
        </CharString>
        <CharString name="lslash">
          14 250 rmoveto
          61 18 rlineto
          -268 141 310 vlineto
          61 18 rlineto
          132 vlineto
          -61 -18 rlineto
          298 -141 -339 vlineto
          -61 -18 rlineto
          endchar
        </CharString>
        <CharString name="m">
          377 75 hmoveto
          -40 callsubr
          306 vlineto
          -26 callsubr
          326 vlineto
          152 -91 84 -129 -86 -69 -45 -67 -38 vhcurveto
          73 -36 -70 39 -83 hhcurveto
          -76 -62 -33 -58 -34 hvcurveto
          83 85 callsubr
        </CharString>
        <CharString name="macron">
          64 callsubr
        </CharString>
        <CharString name="minus">
          36 callsubr
        </CharString>
        <CharString name="multiply">
          -5 106 502 rmoveto
          141 -142 -145 -145 91 -91 145 145 146 -146 92 91 -146 147 141 141 -91 91 -141 -141 -142 141 rlineto
          endchar
        </CharString>
        <CharString name="n">
          -55 callsubr
          endchar
        </CharString>
        <CharString name="nacute">
          -55 callsubr
          157 17 callsubr
        </CharString>
        <CharString name="ncaron">
          -55 callsubr
          279 141 -89 callsubr
        </CharString>
        <CharString name="nine">
          -47 90 210 54 callsubr
          6 67 -101 161 hhcurveto
          201 50 132 243 234 -58 137 -200 -154 -92 -97 -146 -158 102 -74 130 61 59 23 36 29 hvcurveto
          -158 -39 -56 -80 -66 -37 36 58 -10 vhcurveto
          106 178 rmoveto
          -86 -34 58 61 70 42 53 73 72 45 -43 -83 -70 -42 -46 -70 hvcurveto
          endchar
        </CharString>
        <CharString name="notequal">
          59 116 87 rmoveto
          89 hlineto
          73 86 rlineto
          383 125 -277 hlineto
          97 115 rlineto
          180 126 -73 hlineto
          73 86 rlineto
          -90 hlineto
          -73 -86 rlineto
          -382 -126 276 hlineto
          -98 -115 rlineto
          -178 -125 73 hlineto
          endchar
        </CharString>
        <CharString name="ntilde">
          -55 callsubr
          100 55 -77 callsubr
        </CharString>
        <CharString name="numbersign">
          215 456 hmoveto
          132 hlineto
          35 165 rlineto
          153 125 -126 hlineto
          35 164 rlineto
          153 125 -126 73 callsubr
          -183 73 callsubr
          -180 -125 153 hlineto
          -35 -164 rlineto
          -180 -125 153 hlineto
          -35 -165 rlineto
          132 hlineto
          35 165 rlineto
          183 hlineto
          27 125 rmoveto
          -183 hlineto
          35 164 rlineto
          183 hlineto
          endchar
        </CharString>
        <CharString name="o">
          -102 callsubr
          endchar
        </CharString>
        <CharString name="oacute">
          -102 callsubr
          -264 415 -86 callsubr
        </CharString>
        <CharString name="ocircumflex">
          -102 callsubr
          6 421 -65 callsubr
        </CharString>
        <CharString name="odieresis">
          -102 callsubr
          -235 343 -101 callsubr
        </CharString>
        <CharString name="oe">
          369 11 callsubr
          85 77 38 66 51 vhcurveto
          -66 48 72 -38 85 hhcurveto
          134 95 77 102 31 hvcurveto
          -152 hlineto
          -33 -20 -28 -13 callsubr
          403 -32 callsubr
          -158 -87 -73 -37 -67 -47 vhcurveto
          67 -51 -75 37 -85 hhcurveto
          -5 callsubr
          hvcurveto
          701 165 rmoveto
          73 57 -47 -74 3 hvcurveto
          -261 hlineto
          74 9 52 47 67 hhcurveto
          endchar
        </CharString>
        <CharString name="ogonek">
          -405 10 -95 rmoveto
          -52 callsubr
          77 -85 hlineto
          -69 -61 -34 -74 hvcurveto
          endchar
        </CharString>
        <CharString name="ograve">
          -102 callsubr
          -264 421 -45 callsubr
        </CharString>
        <CharString name="ohungarumlaut">
          -102 callsubr
          -20 512 -41 callsubr
        </CharString>
        <CharString name="omacron">
          -102 callsubr
          -333 355 -10 callsubr
        </CharString>
        <CharString name="one">
          -300 143 hmoveto
          144 710 -250 -129 106 hlineto
          endchar
        </CharString>
        <CharString name="onehalf">
          74 75 hmoveto
          134 hlineto
          377 81 callsubr
          -358 -348 60 callsubr
          320 -376 -3 callsubr
        </CharString>
        <CharString name="onequarter">
          47 75 hmoveto
          134 hlineto
          383 81 callsubr
          195 89 callsubr
          -144 -230 rlineto
          -58 190 -65 108 65 43 63 vlineto
          -236 hmoveto
          89 154 rlineto
          -154 vlineto
          -455 224 60 callsubr
          endchar
        </CharString>
        <CharString name="onesuperior">
          -456 77 352 60 callsubr
          endchar
        </CharString>
        <CharString name="ordfeminine">
          -221 28 529 rmoveto
          -106 77 -76 93 59 40 25 37 21 vhcurveto
          -57 108 352 -108 -56 vlineto
          36 -21 -40 25 -59 hhcurveto
          -93 -77 -74 -106 hvcurveto
          290 -1 rmoveto
          -67 -44 -33 -46 -45 -44 34 66 66 44 34 45 46 44 -34 -66 vhcurveto
          endchar
        </CharString>
        <CharString name="ordmasculine">
          -230 28 528 rmoveto
          -110 83 -71 115 115 84 71 110 112 -83 69 -115 -115 -84 -69 -112 vhcurveto
          286 hmoveto
          -69 -44 -33 -44 -45 -42 33 69 70 43 33 44 44 44 -33 -70 vhcurveto
          endchar
        </CharString>
        <CharString name="oslash">
          -38 27 hmoveto
          85 hlineto
          40 44 rlineto
          -34 47 59 -18 64 hhcurveto
          0 callsubr
          78 -26 65 -42 49 hvcurveto
          77 84 rlineto
          -85 hlineto
          -39 -43 rlineto
          33 -47 -59 18 -64 hhcurveto
          -5 callsubr
          -78 25 -66 42 -48 hvcurveto
          76 191 rmoveto
          113 68 53 74 30 29 -9 -18 25 vhcurveto
          -208 -227 rlineto
          -11 23 -7 30 35 vvcurveto
          285 hmoveto
          -112 -72 -54 -72 -30 -29 9 19 -24 vhcurveto
          208 228 rlineto
          12 -24 7 -30 -36 vvcurveto
          endchar
        </CharString>
        <CharString name="otilde">
          -102 callsubr
          -320 332 -77 callsubr
        </CharString>
        <CharString name="p">
          80 callsubr
          86 -141 -818 141 357 -46 callsubr
        </CharString>
        <CharString name="paragraph">
          -17 269 79 callsubr
          -166 -71 -98 -112 -112 70 -98 167 hvcurveto
          19 -278 119 590 65 -590 119 698 hlineto
          endchar
        </CharString>
        <CharString name="parenleft">
          -172 368 -186 rmoveto
          142 13 hlineto
          -189 153 -86 204 218 vvcurveto
          218 86 205 189 152 vhcurveto
          13 -142 vlineto
          -156 -117 -113 -215 -255 vvcurveto
          -257 113 -215 156 -117 vhcurveto
          endchar
        </CharString>
        <CharString name="parenright">
          -171 144 990 rmoveto
          -141 -13 hlineto
          188 -152 86 -205 -218 vvcurveto
          -218 -86 -204 -188 -153 vhcurveto
          -13 141 vlineto
          157 117 112 215 257 vvcurveto
          255 -112 215 -157 117 vhcurveto
          endchar
        </CharString>
        <CharString name="partialdiff">
          -83 410 320 rmoveto
          -112 -56 -97 -84 -51 -39 40 88 115 57 89 85 52 36 -41 -82 vhcurveto
          -373 -80 rmoveto
          -170 98 -78 119 166 144 158 258 186 -95 146 -163 -31 -33 -5 -11 -35 vhcurveto
          -74 vlineto
          8 30 25 3 23 hhcurveto
          82 39 -57 -79 10 hvcurveto
          25 -31 -29 12 -45 hhcurveto
          -146 -128 -141 -181 hvcurveto
          endchar
        </CharString>
        <CharString name="percent">
          82 -42 callsubr
          endchar
        </CharString>
        <CharString name="period">
          -438 122 50 callsubr
          endchar
        </CharString>
        <CharString name="periodcentered">
          30 callsubr
        </CharString>
        <CharString name="perthousand">
          433 -42 callsubr
          193 -76 rmoveto
          -104 69 -57 90 91 67 57 104 102 -67 58 -91 -90 -69 -58 -102 vhcurveto
          158 76 rmoveto
          35 22 -24 -52 66 callsubr
          52 22 24 34 hvcurveto
          endchar
        </CharString>
        <CharString name="pi">
          24 26 446 rmoveto
          73 -446 141 446 224 -446 140 446 74 108 -652 hlineto
          endchar
        </CharString>
        <CharString name="plus">
          2 275 611 rmoveto
          -192 -188 -127 188 -191 134 191 188 127 -188 192 vlineto
          endchar
        </CharString>
        <CharString name="plusminus">
          3 276 618 rmoveto
          -129 -188 -126 188 -120 -188 -126 510 126 -188 120 188 126 -188 129 vlineto
          endchar
        </CharString>
        <CharString name="product">
          61 26 592 rmoveto
          73 -592 141 592 264 -592 140 592 74 108 -692 hlineto
          endchar
        </CharString>
        <CharString name="q">
          -78 callsubr
          -357 140 818 -140 -86 -100 callsubr
          endchar
        </CharString>
        <CharString name="question">
          -42 93 543 rmoveto
          133 hlineto
          59 36 36 60 59 36 -38 -58 -91 -65 -17 -104 vhcurveto
          -57 -202 132 109 hlineto
          144 2 86 51 147 vvcurveto
          134 -96 79 -136 -145 -85 -90 -121 2 vhcurveto
          87 -466 rmoveto
          -45 36 -35 44 74 callsubr
          vhcurveto
          endchar
        </CharString>
        <CharString name="questiondown">
          -42 548 16 rmoveto
          -133 hlineto
          -59 -36 -36 -60 -59 -36 38 58 91 65 17 104 vhcurveto
          57 202 -132 -109 hlineto
          -144 -2 -86 -51 -147 vvcurveto
          -134 96 -79 136 145 85 90 121 -2 vhcurveto
          -87 466 rmoveto
          45 -36 35 -44 -45 -36 -35 -45 -45 36 -35 45 44 36 35 45 vhcurveto
          endchar
        </CharString>
        <CharString name="quotedbl">
          -319 50 586 52 callsubr
          182 -213 52 callsubr
          endchar
        </CharString>
        <CharString name="quotedblbase">
          -4 callsubr
        </CharString>
        <CharString name="quotedblleft">
          -313 28 callsubr
          285 hmoveto
          65 callsubr
          34 vhcurveto
          56 vlineto
          -84 -42 67 callsubr
          endchar
        </CharString>
        <CharString name="quotedblright">
          -313 204 818 rmoveto
          -108 57 -19 vlineto
          -41 -16 -20 -34 51 callsubr
          69 callsubr
          -286 hmoveto
          39 callsubr
        </CharString>
        <CharString name="quoteleft">
          -482 28 callsubr
          endchar
        </CharString>
        <CharString name="quoteright">
          -482 34 818 rmoveto
          39 callsubr
        </CharString>
        <CharString name="quotesinglbase">
          -4 callsubr
        </CharString>
        <CharString name="quotesingle">
          -488 50 586 52 callsubr
          endchar
        </CharString>
        <CharString name="r">
          -7 callsubr
          endchar
        </CharString>
        <CharString name="racute">
          -7 callsubr
          -82 692 -86 callsubr
        </CharString>
        <CharString name="radical">
          193 346 -42 rmoveto
          515 933 rlineto
          -92 hlineto
          -426 -770 -125 225 -197 -117 40 -68 75 45 140 -248 rlineto
          endchar
        </CharString>
        <CharString name="rcaron">
          -7 callsubr
          40 695 -89 callsubr
        </CharString>
        <CharString name="registered">
          106 767 350 rmoveto
          210 -147 148 -214 -215 -147 -148 -210 -209 147 -149 215 214 147 149 209 vhcurveto
          -668 hmoveto
          187 117 121 190 189 117 -121 -187 -185 -117 -124 -189 -190 -117 124 185 vhcurveto
          393 96 rmoveto
          -40 -23 -26 -47 vhcurveto
          -75 132 75 hlineto
          47 23 -26 -40 hvcurveto
          -233 135 rmoveto
          -447 88 178 31 vlineto
          107 -178 rlineto
          105 hlineto
          -114 184 rlineto
          80 19 27 60 49 vvcurveto
          72 -54 63 -107 vhcurveto
          endchar
        </CharString>
        <CharString name="ring">
          -434 10 717 -66 callsubr
          endchar
        </CharString>
        <CharString name="s">
          -67 callsubr
          endchar
        </CharString>
        <CharString name="sacute">
          -67 callsubr
          107 300 -86 callsubr
        </CharString>
        <CharString name="scaron">
          -67 callsubr
          229 303 -89 callsubr
        </CharString>
        <CharString name="section">
          -101 71 531 rmoveto
          -56 28 -41 48 -33 vhcurveto
          -77 -34 -34 -57 -66 vvcurveto
          -89 65 -53 115 -44 vhcurveto
          121 -48 32 -22 -44 vvcurveto
          -44 -28 -21 -48 -48 -24 28 52 -4 vhcurveto
          -143 hlineto
          -115 90 -62 129 134 85 82 93 57 -29 40 -48 33 vhcurveto
          78 39 34 53 65 vvcurveto
          89 -66 53 -115 45 vhcurveto
          -121 47 -32 22 44 vvcurveto
          44 28 21 48 48 25 -28 -52 4 vhcurveto
          143 hlineto
          115 -91 62 -129 -134 -84 -82 -93 vhcurveto
          329 -287 rmoveto
          -50 -40 -42 -68 -68 -41 42 50 50 40 42 68 67 42 -41 -51 vhcurveto
          endchar
        </CharString>
        <CharString name="semicolon">
          -347 177 410 rmoveto
          -34 callsubr
          -70 -319 -16 callsubr
        </CharString>
        <CharString name="seven">
          -123 41 724 rmoveto
          -116 342 vlineto
          -283 -608 rlineto
          153 hlineto
          270 620 rlineto
          104 vlineto
          endchar
        </CharString>
        <CharString name="six">
          -43 561 550 rmoveto
          101 -13 -70 96 -149 hhcurveto
          -182 -80 -134 -237 -243 69 -133 204 154 88 100 144 152 -94 86 -130 -63 -69 -25 -53 -36 hvcurveto
          162 2 46 65 89 hhcurveto
          63 29 -31 -50 12 hvcurveto
          -105 -185 rmoveto
          84 36 -58 -68 -73 -42 -51 -74 -76 -51 50 78 81 56 41 67 hvcurveto
          endchar
        </CharString>
        <CharString name="slash">
          48 callsubr
        </CharString>
        <CharString name="space">
          -383 endchar
        </CharString>
        <CharString name="sterling">
          -29 102 509 rmoveto
          -48 9 -37 10 -33 vhcurveto
          -82 -96 110 hlineto
          1 -8 1 -7 -8 vvcurveto
          -95 -30 -53 -56 -54 vhcurveto
          22 -73 rlineto
          485 112 -354 hlineto
          48 47 19 60 55 vvcurveto
          8 -1 8 -1 8 vhcurveto
          163 96 -190 hlineto
          -11 34 -10 36 42 vvcurveto
          80 42 34 62 72 27 -44 -60 vhcurveto
          129 hlineto
          119 -1 -70 101 -156 hhcurveto
          -141 -97 -78 -146 hvcurveto
          endchar
        </CharString>
        <CharString name="summation">
          -177 40 537 rmoveto
          245 -210 -245 -217 rlineto
          -163 426 107 -306 vlineto
          257 222 rlineto
          108 vlineto
          -254 208 rlineto
          303 108 -426 hlineto
          endchar
        </CharString>
        <CharString name="t">
          -291 91 168 -21 callsubr
        </CharString>
        <CharString name="tcaron">
          -284 295 810 54 callsubr
          57 -16 vlineto
          -24 -16 -9 -34 vhcurveto
          -57 vlineto
          84 42 42 75 32 -6 27 69 callsubr
          -320 -642 -21 callsubr
        </CharString>
        <CharString name="thorn">
          80 callsubr
          272 -141 -1004 141 357 -46 callsubr
        </CharString>
        <CharString name="three">
          -84 56 538 rmoveto
          137 hlineto
          35 4 24 52 73 hhcurveto
          63 36 -35 -54 -72 -60 -23 -82 hvcurveto
          -29 -115 29 hlineto
          106 50 -30 -81 -59 -36 -44 -70 -76 -41 45 63 -3 hvcurveto
          -136 hlineto
          -153 4 112 -71 140 hhcurveto
          154 87 85 122 98 -47 58 -73 25 hvcurveto
          4 vlineto
          46 16 61 55 94 vvcurveto
          107 -81 85 -148 -141 -99 -74 -133 -4 vhcurveto
          endchar
        </CharString>
        <CharString name="threequarters">
          128 169 hmoveto
          134 hlineto
          394 81 callsubr
          182 89 callsubr
          -143 -230 rlineto
          -58 190 -65 107 65 43 63 vlineto
          -236 hmoveto
          90 154 rlineto
          -154 vlineto
          -595 473 -25 callsubr
        </CharString>
        <CharString name="threesuperior">
          -326 22 601 -25 callsubr
        </CharString>
        <CharString name="tilde">
          -302 10 609 -77 callsubr
        </CharString>
        <CharString name="trademark">
          160 27 622 rmoveto
          78 hlineto
          -3 -269 rlineto
          108 hlineto
          -2 269 rlineto
          79 82 -260 hlineto
          315 -351 rmoveto
          93 242 hlineto
          91 -242 rlineto
          71 hlineto
          92 234 2 -234 rlineto
          96 351 93 callsubr
          -84 -222 -78 222 rlineto
          -146 hlineto
          endchar
        </CharString>
        <CharString name="two">
          -109 46 10 rmoveto
          493 115 -291 hlineto
          114 106 160 121 162 vvcurveto
          119 -79 99 -160 -129 -108 -76 -163 -2 vhcurveto
          136 hlineto
          74 1 37 46 65 hhcurveto
          69 29 -42 -64 -125 -172 -124 -163 -145 hvcurveto
          endchar
        </CharString>
        <CharString name="twosuperior">
          -323 32 599 -3 callsubr
        </CharString>
        <CharString name="u">
          -94 callsubr
          endchar
        </CharString>
        <CharString name="uacute">
          -94 callsubr
          -383 692 -86 callsubr
        </CharString>
        <CharString name="ucircumflex">
          -94 callsubr
          -113 698 -65 callsubr
        </CharString>
        <CharString name="udieresis">
          -94 callsubr
          -354 620 -101 callsubr
        </CharString>
        <CharString name="ugrave">
          -94 callsubr
          -383 698 -45 callsubr
        </CharString>
        <CharString name="uhungarumlaut">
          -94 callsubr
          -139 789 -41 callsubr
        </CharString>
        <CharString name="umacron">
          -94 callsubr
          -452 632 -10 callsubr
        </CharString>
        <CharString name="underscore">
          107 107 -174 rmoveto
          587 133 -587 hlineto
          endchar
        </CharString>
        <CharString name="uni00AD">
          36 callsubr
        </CharString>
        <CharString name="uni00B5">
          -5 603 -74 callsubr
          -818 140 276 vlineto
          -12 21 27 -7 26 hhcurveto
          77 62 33 58 34 hvcurveto
          -84 141 vlineto
          endchar
        </CharString>
        <CharString name="uni0122">
          86 324 -59 callsubr
          -404 394 -63 callsubr
          endchar
        </CharString>
        <CharString name="uni0123">
          4 404 597 rmoveto
          109 -57 19 vlineto
          41 16 20 34 vhcurveto
          57 vlineto
          -84 -41 -51 -86 -33 5 -36 11 -40 hvcurveto
          184 -320 -75 callsubr
          endchar
        </CharString>
        <CharString name="uni0136">
          -9 276 31 callsubr
          83 42 46 callsubr
          -317 43 rmoveto
          14 callsubr
        </CharString>
        <CharString name="uni0137">
          -83 240 -59 callsubr
          -281 43 rmoveto
          13 callsubr
        </CharString>
        <CharString name="uni013B">
          -223 197 37 callsubr
          -238 741 rmoveto
          75 callsubr
        </CharString>
        <CharString name="uni013C">
          85 33 callsubr
          -34 vhcurveto
          -56 vlineto
          84 42 46 callsubr
          -126 43 rmoveto
          29 callsubr
        </CharString>
        <CharString name="uni0145">
          65 313 37 callsubr
          103 743 -51 callsubr
          endchar
        </CharString>
        <CharString name="uni0146">
          -10 276 -59 callsubr
          -317 43 rmoveto
          -64 callsubr
          endchar
        </CharString>
        <CharString name="uni0156">
          -34 264 -59 callsubr
          61 531 -73 callsubr
          endchar
        </CharString>
        <CharString name="uni0157">
          -280 83 -59 callsubr
          17 321 -20 callsubr
          endchar
        </CharString>
        <CharString name="uni015E">
          -59 206 508 -81 callsubr
          -120 87 -70 127 -12 vhcurveto
          -114 -23 callsubr
          39 vlineto
          127 18 75 91 98 27 callsubr
          endchar
        </CharString>
        <CharString name="uni015F">
          -139 44 392 -28 callsubr
          7 -107 76 -59 108 -12 rrcurveto
          -113 -23 callsubr
          38 vlineto
          104 15 73 63 88 -60 callsubr
          endchar
        </CharString>
        <CharString name="uni0162">
          -99 34 590 rmoveto
          188 -666 93 hlineto
          34 15 -11 -24 -23 -15 -11 -34 hvcurveto
          -149 -81 176 hlineto
          75 54 41 74 67 -45 37 -64 6 hvcurveto
          591 189 108 -517 vlineto
          endchar
        </CharString>
        <CharString name="uni0163">
          -291 91 168 rmoveto
          -75 25 -45 42 -24 vhcurveto
          -143 55 vlineto
          -2 callsubr
          147 hlineto
          68 24 callsubr
          44 vlineto
          -1 7 7 0 8 hhcurveto
          -29 callsubr
        </CharString>
        <CharString name="uni0218">
          -59 252 38 callsubr
          -162 551 -88 callsubr
          endchar
        </CharString>
        <CharString name="uni0219">
          -139 212 -59 callsubr
          -284 435 -85 callsubr
          endchar
        </CharString>
        <CharString name="uni021A">
          -99 232 -59 callsubr
          -314 633 26 callsubr
          endchar
        </CharString>
        <CharString name="uni021B">
          -291 136 38 callsubr
          -161 211 -21 callsubr
        </CharString>
        <CharString name="uni02C9">
          64 callsubr
        </CharString>
        <CharString name="uni20BA">
          158 281 704 rmoveto
          -143 -206 hlineto
          -141 -30 rlineto
          -90 vlineto
          141 29 rlineto
          -73 vlineto
          -138 -28 rlineto
          -92 vlineto
          138 28 rlineto
          -227 vlineto
          -17 81 73 -10 67 hhcurveto
          269 105 144 309 hvcurveto
          -143 hlineto
          -191 -47 -130 -184 -25 -25 1 6 -28 vhcurveto
          145 vlineto
          147 30 rlineto
          92 vlineto
          -147 -30 rlineto
          72 vlineto
          150 31 rlineto
          92 vlineto
          -150 -31 rlineto
          endchar
        </CharString>
        <CharString name="uni20BD">
          -28 23 278 rmoveto
          92 -73 -92 -109 92 -96 141 96 178 109 -178 73 61 callsubr
          42 callsubr
          hvcurveto
          -257 -312 -92 hlineto
          233 204 rmoveto
          116 hlineto
          82 callsubr
          68 callsubr
          hvcurveto
          -116 hlineto
          endchar
        </CharString>
        <CharString name="uni2113">
          75 hmoveto
          29 callsubr
        </CharString>
        <CharString name="uni2126">
          103 37 351 rmoveto
          -98 34 -89 76 -56 vhcurveto
          -102 -108 271 112 hlineto
          -79 39 -57 78 111 vvcurveto
          149 86 90 127 126 88 -89 -150 -111 -58 -78 -79 -39 vhcurveto
          -112 272 108 -103 vlineto
          77 56 34 89 98 77 callsubr
          -158 -148 -209 vhcurveto
          endchar
        </CharString>
        <CharString name="uni2206">
          31 20 108 rmoveto
          -108 674 108 vlineto
          -279 592 rlineto
          -115 hlineto
          250 -592 rmoveto
          -385 hlineto
          192 432 rlineto
          endchar
        </CharString>
        <CharString name="uni2215">
          48 callsubr
        </CharString>
        <CharString name="uni2219">
          30 callsubr
        </CharString>
        <CharString name="uogonek">
          -97 callsubr
          -81 vlineto
          -43 -14 -31 -32 -53 vvcurveto
          -52 callsubr
          hlineto
          endchar
        </CharString>
        <CharString name="uring">
          -94 callsubr
          -376 717 -66 callsubr
          endchar
        </CharString>
        <CharString name="v">
          -84 7 554 rmoveto
          204 -554 rlineto
          177 hlineto
          204 554 rlineto
          76 callsubr
          -142 -433 -143 433 rlineto
          endchar
        </CharString>
        <CharString name="w">
          161 177 hmoveto
          150 hlineto
          96 372 95 -372 rlineto
          150 hlineto
          170 554 rlineto
          -135 hlineto
          -102 -420 -100 420 rlineto
          -148 hlineto
          -102 -421 -102 421 rlineto
          -142 hlineto
          endchar
        </CharString>
        <CharString name="x">
          -161 357 hmoveto
          158 hlineto
          -179 283 180 271 rlineto
          -143 hlineto
          -102 -168 -106 168 35 callsubr
          179 -284 -179 -270 rlineto
          142 hlineto
          102 167 rlineto
          endchar
        </CharString>
        <CharString name="y">
          -12 callsubr
          endchar
        </CharString>
        <CharString name="yacute">
          -12 callsubr
          177 17 callsubr
        </CharString>
        <CharString name="ydieresis">
          -12 callsubr
          205 66 -101 callsubr
        </CharString>
        <CharString name="yen">
          -40 51 139 rmoveto
          200 -139 141 139 200 98 -200 3 hlineto
          37 71 163 1 rlineto
          97 -113 vlineto
          149 289 5 callsubr
          149 -289 rlineto
          -113 -97 hlineto
          163 -1 37 -71 rlineto
          -3 -200 vlineto
          endchar
        </CharString>
        <CharString name="z">
          -37 callsubr
          endchar
        </CharString>
        <CharString name="zacute">
          -37 callsubr
          -319 253 -86 callsubr
        </CharString>
        <CharString name="zcaron">
          -37 callsubr
          -197 256 -89 callsubr
        </CharString>
        <CharString name="zdotaccent">
          -37 callsubr
          -198 181 -30 callsubr
        </CharString>
        <CharString name="zero">
          -37 323 727 rmoveto
          206 63 -158 -204 -204 -63 -159 -206 -206 -64 159 204 204 64 158 206 hvcurveto
          -130 vmoveto
          -118 -14 -111 -121 -121 14 -112 118 118 14 112 121 121 -14 111 -118 hvcurveto
          endchar
        </CharString>
</ttFont>
